<?xml version="1.0" standalone="no"?>
<!DOCTYPE svg PUBLIC "-//W3C//DTD SVG 20010904//EN"
 "http://www.w3.org/TR/2001/REC-SVG-20010904/DTD/svg10.dtd">
<svg version="1.0" xmlns="http://www.w3.org/2000/svg"
 width="225.000000pt" height="225.000000pt" viewBox="0 0 225.000000 225.000000"
 preserveAspectRatio="xMidYMid meet">
<metadata>
Created by potrace 1.16, written by Peter Selinger 2001-2019
</metadata>
<g transform="translate(0.000000,225.000000) scale(0.100000,-0.100000)"
fill="#000000" stroke="none">
<path d="M912 1934 c-22 -15 -22 -18 -22 -258 l0 -244 -130 -4 c-145 -4 -169
-14 -202 -79 -16 -31 -18 -75 -18 -484 0 -416 2 -453 19 -491 23 -50 68 -74
140 -74 44 0 51 3 51 20 0 17 -7 20 -45 20 -66 0 -102 22 -115 70 -7 27 -10
189 -8 481 l3 441 28 24 c27 23 33 24 201 24 132 0 176 3 185 13 15 19 -5 37
-41 37 -21 0 -28 5 -28 20 0 19 7 20 199 20 110 0 206 3 215 6 14 5 16 35 16
225 0 214 0 218 -22 233 -34 24 -106 20 -153 -9 -22 -13 -49 -24 -60 -24 -11
0 -38 11 -60 24 -47 29 -119 33 -153 9z m148 -54 c56 -37 72 -37 131 1 36 23
57 30 86 27 l38 -3 3 -192 2 -193 -195 0 -195 0 0 188 c0 104 3 192 7 195 17
17 80 5 123 -23z"/>
<path d="M1101 1421 c-8 -5 -11 -16 -8 -25 6 -14 37 -16 261 -16 l255 0 28
-24 28 -24 3 -441 c2 -292 -1 -454 -8 -481 -19 -70 -18 -70 -450 -70 -373 0
-380 0 -380 -20 0 -20 7 -20 386 -20 440 0 441 0 475 74 17 38 19 75 19 491 0
496 0 493 -63 539 -27 20 -44 21 -280 24 -143 1 -258 -1 -266 -7z"/>
<path d="M1587 1144 c-4 -4 -7 -161 -7 -350 0 -298 2 -343 15 -348 9 -3 18 0
21 7 2 7 3 165 2 351 -3 324 -7 364 -31 340z"/>
</g>
</svg>
